<?xml version="1.0" encoding="utf-8"?>
<!-- Generator: Adobe Illustrator 23.0.1, SVG Export Plug-In . SVG Version: 6.00 Build 0)  -->
<svg version="1.1" id="Layer_1" xmlns="http://www.w3.org/2000/svg" xmlns:xlink="http://www.w3.org/1999/xlink" x="0px" y="0px"
	 viewBox="0 0 370.1 426.7" style="enable-background:new 0 0 370.1 426.7;" xml:space="preserve">
<style type="text/css">
	.st0{fill:rgba(243,244,242,0.4);}
	.st1{fill:rgba(190,154,48,0.3);}
</style>
<path class="st0" d="M334,95c3.7-2.2,3.7-7.5,0-9.7l-36.7-21.2c-1.7-1-3.9-1-5.6,0l-25.2,14.5l48,27.7L334,95z"/>
<path class="st0" d="M109.6,172.4l0,43.3c0,4.3,4.7,7,8.4,4.8L306,111.3l-48-27.7l-145.7,84C110.6,168.6,109.6,170.4,109.6,172.4"/>
<path class="st0" d="M145.7,278.4l38.4,22.1c1.7,1,3.9,1,5.6,0l144.2-83.2v-57.9L145.7,268.8C142,270.9,142,276.3,145.7,278.4"/>
<path class="st0" d="M367.3,198c1.7-1,2.8-2.8,2.8-4.8v-45.1c0-4.3-4.7-7-8.4-4.8l-19.4,11.3v57.9L367.3,198z"/>
<polygon class="st1" points="184.8,426.6 184.9,426.7 238.1,395.9 238.1,395.9 369.6,319.9 369.6,258.5 342.3,274.2 333.9,279.1 
	232.7,337.5 184.8,365.2 53.3,289.2 53.3,137.4 202.3,51.4 210.7,46.5 238.1,30.7 184.8,0 0,106.7 0,319.9 "/>
</svg>
